<svg width="26" height="28" viewBox="0 0 26 28" fill="none" xmlns="http://www.w3.org/2000/svg">
<path d="M19.25 7.75C19.25 3.6075 16.765 1.5 13 1.5C9.235 1.5 6.75 3.6075 6.75 7.75M13 14V17.125" stroke="white" stroke-width="1.875" stroke-linecap="round"/>
<path d="M13 10.1638L12.335 10.8238C12.4221 10.9115 12.5257 10.9811 12.6399 11.0286C12.754 11.0761 12.8764 11.1005 13 11.1005C13.1236 11.1005 13.246 11.0761 13.3601 11.0286C13.4743 10.9811 13.5779 10.9115 13.665 10.8238L13 10.1638ZM10.1512 24.0238C8.43875 22.7176 6.58625 21.4551 5.115 19.8513C3.6775 18.2838 2.6875 16.4701 2.6875 14.1238H0.8125C0.8125 17.0751 2.08375 19.3201 3.73375 21.1188C5.35125 22.8826 7.415 24.2938 9.01375 25.5151L10.1512 24.0238ZM2.6875 14.1251C2.6875 11.8451 4.01875 9.92007 5.85625 9.10632C7.6425 8.31632 10.0463 8.52382 12.335 10.8251L13.665 9.50382C10.89 6.71382 7.67125 6.25382 5.0975 7.39132C2.575 8.50757 0.8125 11.1088 0.8125 14.1251H2.6875ZM9.0125 25.5163C9.58875 25.9551 10.2125 26.4288 10.845 26.7863C11.4788 27.1451 12.2075 27.4388 13 27.4388V25.5638C12.6675 25.5638 12.2713 25.4388 11.7688 25.1538C11.2663 24.8701 10.7437 24.4776 10.1512 24.0251L9.0125 25.5163ZM16.9875 25.5151C18.585 24.2938 20.6488 22.8838 22.2663 21.1201C23.9163 19.3213 25.1875 17.0763 25.1875 14.1251H23.3125C23.3125 16.4713 22.3225 18.2851 20.885 19.8526C19.4137 21.4563 17.56 22.7188 15.8488 24.0251L16.9875 25.5151ZM25.1875 14.1251C25.1875 11.1088 23.425 8.50757 20.9025 7.39257C18.3288 6.25257 15.1088 6.71382 12.335 9.50382L13.665 10.8251C15.9525 8.52382 18.3575 8.31632 20.1437 9.10632C21.9813 9.91882 23.3125 11.8438 23.3125 14.1251H25.1875ZM15.8488 24.0251C15.255 24.4776 14.7337 24.8701 14.2312 25.1538C13.7287 25.4388 13.3313 25.5638 13 25.5638V27.4388C13.7925 27.4388 14.5212 27.1451 15.155 26.7863C15.7887 26.4276 16.4112 25.9538 16.9875 25.5151L15.8488 24.0251Z" fill="white"/>
</svg>
