<svg width="28" height="22" viewBox="0 0 28 22" fill="none" xmlns="http://www.w3.org/2000/svg">
<path fill-rule="evenodd" clip-rule="evenodd" d="M12.4363 0.0625H15.5638C16.9238 0.0625 18.0338 0.0624999 18.9113 0.175C19.8238 0.29125 20.6238 0.545 21.2675 1.1575C21.9175 1.7775 22.1925 2.5575 22.3175 3.44875C22.4375 4.2925 22.4375 5.3575 22.4375 6.645V7.96625C22.9375 7.70375 23.5088 7.5625 24.0913 7.5625C26.2263 7.5625 28.0538 9.50875 27.2538 11.6588L25.8538 15.4088L25.825 15.4862C25.6088 16.065 25.4613 16.4613 25.26 16.81C24.6375 17.8825 23.6238 18.6813 22.4375 19.1013V21C22.4375 21.2486 22.3388 21.4871 22.163 21.6629C21.9871 21.8387 21.7487 21.9375 21.5 21.9375C21.2514 21.9375 21.013 21.8387 20.8371 21.6629C20.6613 21.4871 20.5625 21.2486 20.5625 21V19.4325C20.3275 19.4375 20.0625 19.4375 19.7438 19.4375H7.43755V21C7.43755 21.2486 7.33878 21.4871 7.16296 21.6629C6.98715 21.8387 6.74869 21.9375 6.50005 21.9375C6.25141 21.9375 6.01295 21.8387 5.83714 21.6629C5.66132 21.4871 5.56255 21.2486 5.56255 21V19.3337C5.56255 19.2563 5.5713 19.1817 5.5888 19.11C4.1638 18.6125 2.9813 17.5713 2.43005 16.1675L2.38005 16.0325L0.747549 11.6575C-0.0549513 9.50875 1.77255 7.5625 3.9088 7.5625C4.4913 7.5625 5.0613 7.70375 5.56255 7.96625V6.645C5.56255 5.3575 5.56255 4.2925 5.6813 3.44875C5.8063 2.5575 6.0813 1.7775 6.7313 1.1575C7.3763 0.545 8.1763 0.29125 9.0888 0.175C9.9663 0.0624999 11.0763 0.0625 12.4363 0.0625ZM5.56255 10.91V11H5.60005L6.67505 13.6525L6.70005 13.7137C6.80005 13.9587 6.90255 14.2137 7.0613 14.435C7.4213 14.935 7.9663 15.265 8.56005 15.385C8.8188 15.4388 9.0938 15.4375 9.39255 15.4375H18.3163C18.8913 15.4388 19.43 15.44 19.905 15.2438C20.1638 15.1375 20.4038 14.9887 20.6125 14.8C21.0075 14.4425 21.2075 13.9462 21.4 13.4675L21.4463 13.3525L22.4013 11H22.4388V10.91L22.6975 10.27C22.8813 9.8175 23.41 9.4375 24.0913 9.4375C25.2413 9.4375 25.7338 10.3663 25.4963 11.0025L24.0963 14.7525C23.8413 15.44 23.7488 15.6775 23.6375 15.87C23.1413 16.7262 22.1888 17.3612 21.0388 17.5225C20.7738 17.56 20.4663 17.5625 19.6663 17.5625H7.47005C5.9238 17.54 4.6388 16.6625 4.17505 15.4812L4.13255 15.3687L2.5038 11.0025C2.2663 10.3663 2.7588 9.4375 3.9088 9.4375C4.5913 9.4375 5.1188 9.8175 5.30255 10.27L5.56255 10.91ZM20.5625 10.545V6.7125C20.5625 5.3375 20.56 4.40625 20.4625 3.70875C20.3675 3.04375 20.2025 2.73125 19.975 2.515C19.74 2.29 19.3938 2.125 18.6725 2.03375C17.9288 1.9375 16.94 1.93625 15.5 1.93625H12.5C11.06 1.93625 10.0713 1.9375 9.32755 2.03375C8.6063 2.125 8.26005 2.29125 8.02505 2.515C7.79755 2.73125 7.63255 3.04375 7.53755 3.70875C7.44005 4.40625 7.43755 5.33875 7.43755 6.7125V10.5438L8.41255 12.9462C8.4788 13.1088 8.5163 13.2 8.54755 13.27L8.58255 13.3388C8.64505 13.4263 8.7638 13.5138 8.93255 13.5475C8.98255 13.5563 9.0513 13.5612 9.46005 13.5612H18.1838C18.98 13.5612 19.1063 13.5437 19.1913 13.5087C19.2508 13.4837 19.306 13.4495 19.355 13.4075C19.3575 13.4062 19.3825 13.3862 19.4413 13.27C19.5385 13.0656 19.6277 12.8575 19.7088 12.6463L20.5625 10.545Z" fill="white"/>
</svg>
