<svg width="28" height="24" viewBox="0 0 28 24" fill="none" xmlns="http://www.w3.org/2000/svg">
<path d="M14 3.87498L13.325 4.52498C13.4125 4.61572 13.5173 4.68789 13.6333 4.73718C13.7493 4.78648 13.874 4.81188 14 4.81188C14.126 4.81188 14.2507 4.78648 14.3667 4.73718C14.4827 4.68789 14.5875 4.61572 14.675 4.52498L14 3.87498ZM7.75125 17.525C7.55897 17.3668 7.31174 17.2916 7.06396 17.3157C6.81618 17.3399 6.58814 17.4615 6.43 17.6537C6.27186 17.846 6.19659 18.0932 6.22074 18.341C6.24488 18.5888 6.36647 18.8168 6.55875 18.975L7.75125 17.525ZM1.9275 13.7637C1.98659 13.8717 2.06639 13.9671 2.16232 14.0442C2.25825 14.1214 2.36844 14.1789 2.4866 14.2135C2.60477 14.2481 2.72858 14.2591 2.85099 14.2458C2.97339 14.2326 3.09199 14.1953 3.2 14.1362C3.30801 14.0771 3.40333 13.9973 3.4805 13.9014C3.55768 13.8055 3.6152 13.6953 3.64979 13.5771C3.68438 13.459 3.69536 13.3351 3.6821 13.2127C3.66884 13.0903 3.63159 12.9717 3.5725 12.8637L1.9275 13.7637ZM2.4375 8.42123C2.4375 5.73373 3.95625 3.47873 6.03 2.52998C8.045 1.60873 10.7525 1.85248 13.325 4.52498L14.675 3.22623C11.625 0.0549827 8.08 -0.468767 5.25 0.824983C2.4825 2.09123 0.5625 5.03123 0.5625 8.42123H2.4375ZM9.62125 21.375C10.2625 21.88 10.95 22.4175 11.6462 22.825C12.3425 23.2325 13.1375 23.5625 14 23.5625V21.6875C13.6125 21.6875 13.1575 21.5375 12.5925 21.2062C12.0262 20.8762 11.44 20.4212 10.7825 19.9025L9.62125 21.375ZM18.3787 21.375C20.1613 19.9687 22.4412 18.3587 24.2288 16.345C26.05 14.295 27.4375 11.7537 27.4375 8.42123H25.5625C25.5625 11.1687 24.4375 13.285 22.8275 15.1C21.1838 16.95 19.1125 18.4087 17.2175 19.9025L18.3787 21.375ZM27.4375 8.42123C27.4375 5.03123 25.5187 2.09123 22.75 0.824983C19.92 -0.468767 16.3775 0.0549827 13.325 3.22498L14.675 4.52498C17.2475 1.85373 19.955 1.60873 21.97 2.52998C24.0437 3.47873 25.5625 5.73248 25.5625 8.42123H27.4375ZM17.2175 19.9025C16.56 20.4212 15.9738 20.8762 15.4075 21.2062C14.8413 21.5362 14.3875 21.6875 14 21.6875V23.5625C14.8625 23.5625 15.6575 23.2312 16.3538 22.825C17.0513 22.4175 17.7375 21.88 18.3787 21.375L17.2175 19.9025ZM10.7825 19.9025C9.7875 19.1187 8.77625 18.3687 7.75125 17.525L6.55875 18.975C7.59625 19.8287 8.69375 20.6437 9.62125 21.375L10.7825 19.9025ZM3.5725 12.865C2.8194 11.5056 2.42855 9.9753 2.4375 8.42123H0.5625C0.5625 10.4687 1.0875 12.2275 1.9275 13.7637L3.5725 12.865Z" fill="white"/>
<path d="M14 3.875L12.125 7.625L16.5 10.75L12.75 15.125L15.25 17.625L14 22.625" stroke="white" stroke-width="1.875" stroke-linecap="round" stroke-linejoin="round"/>
</svg>
