<svg width="28" height="28" viewBox="0 0 28 28" fill="none" xmlns="http://www.w3.org/2000/svg">
<path d="M20.2501 14C21.6092 13.9998 22.9313 13.5565 24.0159 12.7373C25.1004 11.9182 25.8884 10.7678 26.2604 9.46054C26.6324 8.15328 26.5681 6.76038 26.0773 5.49295C25.5864 4.22551 24.6958 3.15262 23.5404 2.43686C22.385 1.72111 21.0277 1.4015 19.6743 1.52649C18.3209 1.65147 17.0451 2.21423 16.0403 3.12948C15.0355 4.04473 14.3564 5.26258 14.106 6.59847C13.8556 7.93436 14.0475 9.31547 14.6526 10.5325C14.7666 10.7536 14.7964 11.0086 14.7363 11.25L14.3638 12.6413C14.327 12.779 14.327 12.924 14.3639 13.0618C14.4008 13.1995 14.4733 13.3251 14.5742 13.4259C14.675 13.5268 14.8006 13.5993 14.9383 13.6362C15.0761 13.6731 15.2211 13.6731 15.3588 13.6363L16.7501 13.2638C16.9915 13.2037 17.2465 13.2334 17.4676 13.3475C18.3322 13.777 19.2846 14.0003 20.2501 14Z" stroke="white" stroke-width="1.875"/>
<path d="M17.3063 19.6788L17.875 19.0801L16.515 17.7876L15.9463 18.3888L17.3063 19.6788ZM19.7488 18.8263L22.1363 20.2026L23.0725 18.5763L20.6838 17.2013L19.7488 18.8263ZM22.5975 23.0513L20.8225 24.9201L22.1813 26.2126L23.9563 24.3438L22.5975 23.0513ZM19.7538 25.5201C17.96 25.6963 13.2788 25.5463 8.19875 20.1988L6.84 21.4888C12.3763 27.3176 17.6575 27.6126 19.9375 27.3863L19.7538 25.5201ZM8.19875 20.1988C3.35375 15.0976 2.54125 10.7938 2.44 8.90635L0.567502 9.0076C0.692502 11.3201 1.6725 16.0488 6.84 21.4888L8.19875 20.1988ZM9.91875 11.9013L10.2763 11.5238L8.9175 10.2326L8.55875 10.6101L9.91875 11.9013ZM10.5588 6.82385L8.9825 4.59635L7.45125 5.67885L9.02625 7.9076L10.5588 6.82385ZM3.64625 4.11385L1.68625 6.18135L3.04625 7.4726L5.00875 5.40635L3.64625 4.11385ZM9.23875 11.2551C9.01379 11.0383 8.7867 10.8237 8.5575 10.6113L8.555 10.6138L8.55125 10.6176L8.48875 10.6901C8.36635 10.8524 8.26941 11.0324 8.20125 11.2238C8.07875 11.5676 8.01375 12.0226 8.09625 12.5901C8.25875 13.7051 8.99 15.2038 10.8988 17.2151L12.2588 15.9226C10.4738 14.0438 10.0338 12.8876 9.95125 12.3176C9.91125 12.0426 9.95125 11.8988 9.9675 11.8526L9.9775 11.8288C9.96408 11.8499 9.94859 11.8696 9.93125 11.8876L9.925 11.8938L9.92125 11.8976L9.92 11.8988C9.92 11.8988 9.9175 11.9013 9.23875 11.2551ZM10.8988 17.2151C12.8025 19.2201 14.24 20.0063 15.3363 20.1851C15.9 20.2763 16.3563 20.2026 16.7013 20.0663C16.8926 19.9917 17.0704 19.8861 17.2275 19.7538L17.2725 19.7113L17.29 19.6938L17.3025 19.6813C17.3025 19.6788 17.3063 19.6788 16.6263 19.0326C15.9463 18.3876 15.9475 18.3863 15.9475 18.3851L15.95 18.3838L15.9525 18.3801L15.9588 18.3738L15.9713 18.3613L16.0175 18.3213C16.03 18.3147 16.0283 18.3151 16.0125 18.3226C15.9875 18.3326 15.875 18.3726 15.6375 18.3338C15.135 18.2513 14.05 17.8088 12.2588 15.9226L10.8988 17.2151ZM8.9825 4.59635C7.715 2.80385 5.18 2.5001 3.6475 4.1151L5.005 5.40635C5.65875 4.71885 6.81125 4.7726 7.45125 5.67885L8.9825 4.59635ZM2.44 8.90635C2.4125 8.40635 2.63125 7.9076 3.04625 7.4726L1.68625 6.18135C1.01625 6.88635 0.506252 7.8651 0.567502 9.0076L2.44 8.90635ZM20.8213 24.9213C20.4725 25.2888 20.1088 25.4851 19.7538 25.5201L19.9375 27.3863C20.8713 27.2951 21.6275 26.7963 22.1813 26.2126L20.8213 24.9213ZM10.2763 11.5251C11.4875 10.2501 11.5713 8.25885 10.5588 6.8251L9.0275 7.9076C9.555 8.65385 9.47375 9.6476 8.9175 10.2326L10.2763 11.5251ZM22.1363 20.2026C23.1625 20.7938 23.3638 22.2463 22.5975 23.0526L23.9563 24.3438C25.5875 22.6263 25.1125 19.7513 23.0725 18.5763L22.1363 20.2026ZM17.875 19.0801C18.3563 18.5726 19.1075 18.4588 19.7488 18.8276L20.6838 17.2026C19.31 16.4126 17.6088 16.6401 16.515 17.7901L17.875 19.0801Z" fill="white"/>
</svg>
