<svg width="32" height="25" viewBox="0 0 32 25" fill="none" xmlns="http://www.w3.org/2000/svg">
<path fill-rule="evenodd" clip-rule="evenodd" d="M12.381 10.5111C9.4317 10.5111 7.95703 9.03642 7.95703 6.08709C7.95703 3.13775 9.4317 1.66309 12.381 1.66309C15.3304 1.66309 16.805 3.13775 16.805 6.08709C16.805 9.03642 15.3304 10.5111 12.381 10.5111Z" stroke="white" stroke-width="2.5" stroke-linecap="round" stroke-linejoin="round"/>
<path d="M1.99609 23.5852C1.99609 19.4562 3.47109 16.2122 12.3191 16.2122C21.1671 16.2122 22.6411 19.4562 22.6411 23.5852" stroke="white" stroke-width="2.5" stroke-linecap="round" stroke-linejoin="round"/>
<path d="M20.6072 1.66309C22.0822 1.66309 23.5562 3.13809 23.5562 6.08709C23.5562 9.03609 22.0822 10.5111 20.6072 10.5111" stroke="white" stroke-width="2.5" stroke-linecap="round" stroke-linejoin="round"/>
<path d="M27.0601 17.7441C29.4221 19.0731 30.0091 21.1551 30.0091 23.6441" stroke="white" stroke-width="2.5" stroke-linecap="round" stroke-linejoin="round"/>
</svg>
