<svg width="28" height="28" viewBox="0 0 28 28" fill="none" xmlns="http://www.w3.org/2000/svg">
<path d="M14 22.75C16.0711 22.75 17.75 21.0711 17.75 19C17.75 16.9289 16.0711 15.25 14 15.25C11.9289 15.25 10.25 16.9289 10.25 19C10.25 21.0711 11.9289 22.75 14 22.75Z" stroke="white" stroke-width="1.875"/>
<path d="M10.3911 18.95L9.09108 20.25L7.24358 22.0212C6.83858 22.41 6.63608 22.6037 6.56608 22.7687C6.48737 22.9442 6.47707 23.1427 6.53719 23.3254C6.59732 23.5081 6.72353 23.6618 6.89108 23.7562C7.04358 23.8425 7.31983 23.8687 7.86983 23.9237C8.17983 23.9537 8.33608 23.9687 8.46608 24.015C8.60734 24.064 8.73633 24.143 8.84421 24.2466C8.95208 24.3501 9.0363 24.4758 9.09108 24.615C9.13983 24.74 9.15608 24.8887 9.18733 25.1875C9.24358 25.715 9.27233 25.9787 9.36233 26.125C9.56733 26.4587 10.0011 26.59 10.3923 26.4375C10.5636 26.3687 10.7661 26.175 11.1711 25.7875L13.9998 23.075L16.8286 25.7875C17.2336 26.175 17.4361 26.3687 17.6073 26.4375C17.9986 26.59 18.4323 26.4587 18.6373 26.125C18.7273 25.9787 18.7561 25.715 18.8123 25.1875C18.8436 24.8887 18.8598 24.74 18.9086 24.615C18.9634 24.4758 19.0476 24.3501 19.1555 24.2466C19.2633 24.143 19.3923 24.064 19.5336 24.015C19.6648 23.9687 19.8198 23.9537 20.1298 23.9237C20.6798 23.87 20.9561 23.8425 21.1086 23.7562C21.2761 23.6618 21.4023 23.5081 21.4625 23.3254C21.5226 23.1427 21.5123 22.9442 21.4336 22.7687C21.3636 22.6037 21.1611 22.41 20.7561 22.0212L18.9073 20.25L17.7498 19.0912" stroke="white" stroke-width="1.875"/>
<path d="M20.65 21.495C23.115 21.4688 24.49 21.3138 25.4013 20.4013C26.5 19.3038 26.5 17.535 26.5 14V9C26.5 5.465 26.5 3.69625 25.4013 2.59875C24.3038 1.5 22.535 1.5 19 1.5H9C5.465 1.5 3.69625 1.5 2.59875 2.59875C1.5 3.69625 1.5 5.465 1.5 9V14C1.5 17.535 1.5 19.3038 2.59875 20.4013C3.55875 21.3625 5.03125 21.4825 7.75 21.4975" stroke="white" stroke-width="1.875"/>
<path d="M10.25 6.5H17.75M7.75 10.875H20.25" stroke="white" stroke-width="1.875" stroke-linecap="round"/>
</svg>
