<svg width="26" height="28" viewBox="0 0 26 28" fill="none" xmlns="http://www.w3.org/2000/svg">
<path fill-rule="evenodd" clip-rule="evenodd" d="M7.07875 3.07524C7.15277 2.38526 7.47926 1.747 7.99545 1.2832C8.51163 0.819392 9.18106 0.562795 9.875 0.562744H16.125C16.8189 0.562795 17.4884 0.819392 18.0046 1.2832C18.5207 1.747 18.8472 2.38526 18.9212 3.07524C19.8762 3.09524 20.7 3.14399 21.405 3.27399C22.3525 3.44899 23.1588 3.77899 23.815 4.43649C24.5675 5.18774 24.89 6.13649 25.0425 7.26149C25.1875 8.34399 25.1875 9.72274 25.1875 11.4315V19.069C25.1875 20.7777 25.1875 22.1565 25.0425 23.2402C24.89 24.3652 24.5675 25.3127 23.815 26.0652C23.0625 26.8177 22.115 27.1402 20.99 27.2927C19.9062 27.4377 18.5275 27.4377 16.8188 27.4377H9.18125C7.4725 27.4377 6.09375 27.4377 5.01 27.2927C3.885 27.1402 2.9375 26.8177 2.185 26.0652C1.4325 25.3127 1.11 24.3652 0.95875 23.2402C0.8125 22.1565 0.8125 20.7777 0.8125 19.069V11.4315C0.8125 9.72274 0.8125 8.34399 0.95875 7.26024C1.10875 6.13524 1.43375 5.18774 2.185 4.43524C2.84125 3.77899 3.6475 3.44774 4.595 3.27399C5.3 3.14399 6.125 3.09524 7.07875 3.07524ZM7.08125 4.95024C6.18375 4.97024 5.49125 5.01524 4.93375 5.11774C4.22625 5.24774 3.815 5.45774 3.51125 5.76149C3.165 6.10774 2.94 6.59274 2.81625 7.51149C2.69 8.45399 2.6875 9.70649 2.6875 11.5002V19.0002C2.6875 20.794 2.69 22.0452 2.81625 22.9902C2.94 23.9077 3.16625 24.3927 3.51125 24.739C3.8575 25.0852 4.3425 25.3102 5.26125 25.434C6.20375 25.5602 7.45625 25.5627 9.25 25.5627H16.75C18.5438 25.5627 19.795 25.5602 20.74 25.434C21.6575 25.3102 22.1425 25.084 22.4888 24.739C22.835 24.3927 23.06 23.9077 23.1838 22.989C23.31 22.0452 23.3125 20.794 23.3125 19.0002V11.5002C23.3125 9.70649 23.31 8.45399 23.1838 7.51024C23.06 6.59274 22.8337 6.10774 22.4888 5.76149C22.1838 5.45774 21.7737 5.24899 21.0662 5.11774C20.5087 5.01524 19.8162 4.97024 18.9188 4.95149C18.8388 5.63631 18.51 6.26789 17.995 6.72624C17.4799 7.1846 16.8145 7.4378 16.125 7.43774H9.875C9.18534 7.43777 8.51971 7.18439 8.00464 6.72578C7.48956 6.26716 7.16094 5.63528 7.08125 4.95024ZM9.875 2.43774C9.62636 2.43774 9.3879 2.53652 9.21209 2.71233C9.03627 2.88815 8.9375 3.1266 8.9375 3.37524V4.62524C8.9375 5.14274 9.3575 5.56274 9.875 5.56274H16.125C16.3736 5.56274 16.6121 5.46397 16.7879 5.28816C16.9637 5.11234 17.0625 4.87388 17.0625 4.62524V3.37524C17.0625 3.1266 16.9637 2.88815 16.7879 2.71233C16.6121 2.53652 16.3736 2.43774 16.125 2.43774H9.875ZM5.8125 12.1252C5.8125 11.8766 5.91127 11.6381 6.08709 11.4623C6.2629 11.2865 6.50136 11.1877 6.75 11.1877H7.375C7.62364 11.1877 7.8621 11.2865 8.03791 11.4623C8.21373 11.6381 8.3125 11.8766 8.3125 12.1252C8.3125 12.3739 8.21373 12.6123 8.03791 12.7882C7.8621 12.964 7.62364 13.0627 7.375 13.0627H6.75C6.50136 13.0627 6.2629 12.964 6.08709 12.7882C5.91127 12.6123 5.8125 12.3739 5.8125 12.1252ZM10.1875 12.1252C10.1875 11.8766 10.2863 11.6381 10.4621 11.4623C10.6379 11.2865 10.8764 11.1877 11.125 11.1877H19.25C19.4986 11.1877 19.7371 11.2865 19.9129 11.4623C20.0887 11.6381 20.1875 11.8766 20.1875 12.1252C20.1875 12.3739 20.0887 12.6123 19.9129 12.7882C19.7371 12.964 19.4986 13.0627 19.25 13.0627H11.125C10.8764 13.0627 10.6379 12.964 10.4621 12.7882C10.2863 12.6123 10.1875 12.3739 10.1875 12.1252ZM5.8125 16.5002C5.8125 16.2516 5.91127 16.0131 6.08709 15.8373C6.2629 15.6615 6.50136 15.5627 6.75 15.5627H7.375C7.62364 15.5627 7.8621 15.6615 8.03791 15.8373C8.21373 16.0131 8.3125 16.2516 8.3125 16.5002C8.3125 16.7489 8.21373 16.9873 8.03791 17.1632C7.8621 17.339 7.62364 17.4377 7.375 17.4377H6.75C6.50136 17.4377 6.2629 17.339 6.08709 17.1632C5.91127 16.9873 5.8125 16.7489 5.8125 16.5002ZM10.1875 16.5002C10.1875 16.2516 10.2863 16.0131 10.4621 15.8373C10.6379 15.6615 10.8764 15.5627 11.125 15.5627H19.25C19.4986 15.5627 19.7371 15.6615 19.9129 15.8373C20.0887 16.0131 20.1875 16.2516 20.1875 16.5002C20.1875 16.7489 20.0887 16.9873 19.9129 17.1632C19.7371 17.339 19.4986 17.4377 19.25 17.4377H11.125C10.8764 17.4377 10.6379 17.339 10.4621 17.1632C10.2863 16.9873 10.1875 16.7489 10.1875 16.5002ZM5.8125 20.8752C5.8125 20.6266 5.91127 20.3881 6.08709 20.2123C6.2629 20.0365 6.50136 19.9377 6.75 19.9377H7.375C7.62364 19.9377 7.8621 20.0365 8.03791 20.2123C8.21373 20.3881 8.3125 20.6266 8.3125 20.8752C8.3125 21.1239 8.21373 21.3623 8.03791 21.5382C7.8621 21.714 7.62364 21.8127 7.375 21.8127H6.75C6.50136 21.8127 6.2629 21.714 6.08709 21.5382C5.91127 21.3623 5.8125 21.1239 5.8125 20.8752ZM10.1875 20.8752C10.1875 20.6266 10.2863 20.3881 10.4621 20.2123C10.6379 20.0365 10.8764 19.9377 11.125 19.9377H19.25C19.4986 19.9377 19.7371 20.0365 19.9129 20.2123C20.0887 20.3881 20.1875 20.6266 20.1875 20.8752C20.1875 21.1239 20.0887 21.3623 19.9129 21.5382C19.7371 21.714 19.4986 21.8127 19.25 21.8127H11.125C10.8764 21.8127 10.6379 21.714 10.4621 21.5382C10.2863 21.3623 10.1875 21.1239 10.1875 20.8752Z" fill="white"/>
</svg>
