<svg width="22" height="28" viewBox="0 0 22 28" fill="none" xmlns="http://www.w3.org/2000/svg">
<path d="M3.2225 19C1.8325 19.7913 1 20.7988 1 21.895C1 24.4375 5.4775 26.5 11 26.5C16.5225 26.5 21 24.4375 21 21.895C21 20.7988 20.1675 19.7913 18.7775 19" stroke="white" stroke-width="1.5" stroke-linecap="round" stroke-linejoin="round"/>
<path d="M12.2474 7.75H9.75244C6.16494 7.75 3.74619 11.5875 5.15994 15.035C5.25103 15.2659 5.4088 15.4645 5.61317 15.6054C5.81753 15.7463 6.05922 15.8232 6.30744 15.8263H7.18619C7.48244 15.8263 7.74119 16.0388 7.81244 16.3388L8.94369 21.0712C9.17994 22.0587 10.0274 22.75 10.9999 22.75C11.9724 22.75 12.8199 22.0575 13.0562 21.0712L14.1874 16.3388C14.2185 16.1953 14.2971 16.0666 14.4106 15.9735C14.5241 15.8805 14.6657 15.8286 14.8124 15.8263H15.6924C15.9407 15.8232 16.1824 15.7463 16.3867 15.6054C16.5911 15.4645 16.7489 15.2659 16.8399 15.035C18.2549 11.5863 15.8349 7.75 12.2474 7.75Z" stroke="white" stroke-width="1.5" stroke-linecap="round" stroke-linejoin="round"/>
<path d="M14.125 4.625C14.125 5.4538 13.7958 6.24866 13.2097 6.83471C12.6237 7.42076 11.8288 7.75 11 7.75C10.1712 7.75 9.37634 7.42076 8.79029 6.83471C8.20424 6.24866 7.875 5.4538 7.875 4.625C7.875 3.7962 8.20424 3.00134 8.79029 2.41529C9.37634 1.82924 10.1712 1.5 11 1.5C11.8288 1.5 12.6237 1.82924 13.2097 2.41529C13.7958 3.00134 14.125 3.7962 14.125 4.625Z" stroke="white" stroke-width="1.5" stroke-linecap="round" stroke-linejoin="round"/>
</svg>
